#N canvas 827 239 527 327 12;
#X declare -path else;
#X declare -path else;
#X declare -path else;
#X declare -path else;
#X declare -path else;
#X declare -path else;
#X declare -path else;
#X declare -path else;
#N canvas 0 22 450 300 pitchshift 0;
#X obj 517 500 *~;
#X obj 584 546 +~;
#X obj 629 540 *~;
#X obj 460 418 *~;
#X obj 629 467 *~;
#X obj 791 262 expr 1000 / $f1;
#X obj 619 265 expr 1 - $f1;
#X obj 773 297 *~;
#X text 779 144 grain size;
#X text 594 138 transposition;
#X obj 460 449 delread4~ \$0-buffer, f 9;
#X obj 629 494 delread4~ \$0-buffer;
#X obj 402 274 delwrite~ \$0-buffer 500;
#X obj 402 170 inlet~;
#X obj 584 595 outlet~;
#X obj 791 166 inlet;
#X obj 619 165 inlet;
#X text 935 405 Part of ELSE \; https://github.com/porres/pd-else;
#X text 937 381 Alexandre Torres Porres (2018);
#X obj 791 228 max 5;
#X obj 935 243 expr if($f1 == 0 \, 75 \, $f1);
#X obj 935 219 f \$2;
#X obj 773 417 else/pimp~ 0 0.5;
#X obj 773 531 else/envelope~;
#X obj 648 413 else/f2s~ 50;
#X obj 535 440 else/envelope~;
#X obj 535 379 else/pimp~;
#X obj 619 238 else/cents2ratio;
#X obj 643 207 else/initmess \$1;
#X obj 935 194 else/lb;
#X obj 952 337 declare -path else;
#X connect 0 0 1 0;
#X connect 1 0 14 0;
#X connect 2 0 1 1;
#X connect 3 0 10 0;
#X connect 4 0 11 0;
#X connect 5 0 7 1;
#X connect 6 0 7 0;
#X connect 7 0 22 0;
#X connect 7 0 26 0;
#X connect 10 0 0 0;
#X connect 11 0 2 0;
#X connect 13 0 12 0;
#X connect 15 0 19 0;
#X connect 16 0 27 0;
#X connect 19 0 5 0;
#X connect 19 0 24 0;
#X connect 20 0 19 0;
#X connect 21 0 20 0;
#X connect 22 0 4 0;
#X connect 22 0 23 0;
#X connect 23 0 2 1;
#X connect 24 0 3 1;
#X connect 24 0 4 1;
#X connect 25 0 0 1;
#X connect 26 0 3 0;
#X connect 26 0 25 0;
#X connect 27 0 6 0;
#X connect 28 0 27 0;
#X connect 29 0 21 0;
#X restore 426 256 pd pitchshift;
#X obj 621 -109 dac~;
#X obj 637 -184 *~;
#X obj 577 -249 hsl 128 17 0 8 0 0 empty empty high -2 -8 0 10 #ff986e #000000 #000000 0 1;
#X obj 99 -214 adc~;
#X msg 174 -151 zero;
#X obj 491 208 hsl 128 17 0 5 0 0 empty empty grainsize -2 -8 0 10 #9dd5ff #000000 #000000 0 1;
#X obj 461 161 hsl 128 17 -150 150 0 0 empty empty transposition -2 -8 0 10 #9dd5ff #000000 #000000 0 1;
#N canvas 0 22 450 300 pitchshift 0;
#X obj 517 500 *~;
#X obj 584 546 +~;
#X obj 629 540 *~;
#X obj 460 418 *~;
#X obj 629 467 *~;
#X obj 791 262 expr 1000 / $f1;
#X obj 619 265 expr 1 - $f1;
#X obj 773 297 *~;
#X text 779 144 grain size;
#X text 594 138 transposition;
#X obj 460 449 delread4~ \$0-buffer, f 9;
#X obj 629 494 delread4~ \$0-buffer;
#X obj 402 274 delwrite~ \$0-buffer 500;
#X obj 402 170 inlet~;
#X obj 584 595 outlet~;
#X obj 791 166 inlet;
#X obj 619 165 inlet;
#X text 935 405 Part of ELSE \; https://github.com/porres/pd-else;
#X text 937 381 Alexandre Torres Porres (2018);
#X obj 791 228 max 5;
#X obj 935 243 expr if($f1 == 0 \, 75 \, $f1);
#X obj 935 219 f \$2;
#X obj 773 417 else/pimp~ 0 0.5;
#X obj 773 531 else/envelope~;
#X obj 648 413 else/f2s~ 50;
#X obj 535 440 else/envelope~;
#X obj 535 379 else/pimp~;
#X obj 619 238 else/cents2ratio;
#X obj 643 207 else/initmess \$1;
#X obj 935 194 else/lb;
#X obj 952 337 declare -path else;
#X connect 0 0 1 0;
#X connect 1 0 14 0;
#X connect 2 0 1 1;
#X connect 3 0 10 0;
#X connect 4 0 11 0;
#X connect 5 0 7 1;
#X connect 6 0 7 0;
#X connect 7 0 22 0;
#X connect 7 0 26 0;
#X connect 10 0 0 0;
#X connect 11 0 2 0;
#X connect 13 0 12 0;
#X connect 15 0 19 0;
#X connect 16 0 27 0;
#X connect 19 0 5 0;
#X connect 19 0 24 0;
#X connect 20 0 19 0;
#X connect 21 0 20 0;
#X connect 22 0 4 0;
#X connect 22 0 23 0;
#X connect 23 0 2 1;
#X connect 24 0 3 1;
#X connect 24 0 4 1;
#X connect 25 0 0 1;
#X connect 26 0 3 0;
#X connect 26 0 25 0;
#X connect 27 0 6 0;
#X connect 28 0 27 0;
#X connect 29 0 21 0;
#X restore 749 249 pd pitchshift;
#X obj 814 201 hsl 128 17 0 5 0 0 empty empty grainsize -2 -8 0 10 #9dd5ff #000000 #000000 0 1;
#X obj 784 154 hsl 128 17 -150 150 0 0 empty empty transposition -2 -8 0 10 #9dd5ff #000000 #000000 0 1;
#N canvas 0 22 450 300 pitchshift 0;
#X obj 517 500 *~;
#X obj 584 546 +~;
#X obj 629 540 *~;
#X obj 460 418 *~;
#X obj 629 467 *~;
#X obj 791 262 expr 1000 / $f1;
#X obj 619 265 expr 1 - $f1;
#X obj 773 297 *~;
#X text 779 144 grain size;
#X text 594 138 transposition;
#X obj 460 449 delread4~ \$0-buffer, f 9;
#X obj 629 494 delread4~ \$0-buffer;
#X obj 402 274 delwrite~ \$0-buffer 500;
#X obj 402 170 inlet~;
#X obj 584 595 outlet~;
#X obj 791 166 inlet;
#X obj 619 165 inlet;
#X text 935 405 Part of ELSE \; https://github.com/porres/pd-else;
#X text 937 381 Alexandre Torres Porres (2018);
#X obj 791 228 max 5;
#X obj 935 243 expr if($f1 == 0 \, 75 \, $f1);
#X obj 935 219 f \$2;
#X obj 773 417 else/pimp~ 0 0.5;
#X obj 773 531 else/envelope~;
#X obj 648 413 else/f2s~ 50;
#X obj 535 440 else/envelope~;
#X obj 535 379 else/pimp~;
#X obj 619 238 else/cents2ratio;
#X obj 643 207 else/initmess \$1;
#X obj 935 194 else/lb;
#X obj 952 337 declare -path else;
#X connect 0 0 1 0;
#X connect 1 0 14 0;
#X connect 2 0 1 1;
#X connect 3 0 10 0;
#X connect 4 0 11 0;
#X connect 5 0 7 1;
#X connect 6 0 7 0;
#X connect 7 0 22 0;
#X connect 7 0 26 0;
#X connect 10 0 0 0;
#X connect 11 0 2 0;
#X connect 13 0 12 0;
#X connect 15 0 19 0;
#X connect 16 0 27 0;
#X connect 19 0 5 0;
#X connect 19 0 24 0;
#X connect 20 0 19 0;
#X connect 21 0 20 0;
#X connect 22 0 4 0;
#X connect 22 0 23 0;
#X connect 23 0 2 1;
#X connect 24 0 3 1;
#X connect 24 0 4 1;
#X connect 25 0 0 1;
#X connect 26 0 3 0;
#X connect 26 0 25 0;
#X connect 27 0 6 0;
#X connect 28 0 27 0;
#X connect 29 0 21 0;
#X restore 930 40 pd pitchshift;
#X obj 995 -8 hsl 128 17 0 5 0 0 empty empty grainsize -2 -8 0 10 #9dd5ff #000000 #000000 0 1;
#X obj 965 -55 hsl 128 17 -150 150 0 0 empty empty transposition -2 -8 0 10 #9dd5ff #000000 #000000 0 1;
#N canvas 0 22 450 300 pitchshift 0;
#X obj 517 500 *~;
#X obj 584 546 +~;
#X obj 629 540 *~;
#X obj 460 418 *~;
#X obj 629 467 *~;
#X obj 791 262 expr 1000 / $f1;
#X obj 619 265 expr 1 - $f1;
#X obj 773 297 *~;
#X text 779 144 grain size;
#X text 594 138 transposition;
#X obj 460 449 delread4~ \$0-buffer, f 9;
#X obj 629 494 delread4~ \$0-buffer;
#X obj 402 274 delwrite~ \$0-buffer 500;
#X obj 402 170 inlet~;
#X obj 584 595 outlet~;
#X obj 791 166 inlet;
#X obj 619 165 inlet;
#X text 935 405 Part of ELSE \; https://github.com/porres/pd-else;
#X text 937 381 Alexandre Torres Porres (2018);
#X obj 791 228 max 5;
#X obj 935 243 expr if($f1 == 0 \, 75 \, $f1);
#X obj 935 219 f \$2;
#X obj 773 417 else/pimp~ 0 0.5;
#X obj 773 531 else/envelope~;
#X obj 648 413 else/f2s~ 50;
#X obj 535 440 else/envelope~;
#X obj 535 379 else/pimp~;
#X obj 619 238 else/cents2ratio;
#X obj 643 207 else/initmess \$1;
#X obj 935 194 else/lb;
#X obj 952 337 declare -path else;
#X connect 0 0 1 0;
#X connect 1 0 14 0;
#X connect 2 0 1 1;
#X connect 3 0 10 0;
#X connect 4 0 11 0;
#X connect 5 0 7 1;
#X connect 6 0 7 0;
#X connect 7 0 22 0;
#X connect 7 0 26 0;
#X connect 10 0 0 0;
#X connect 11 0 2 0;
#X connect 13 0 12 0;
#X connect 15 0 19 0;
#X connect 16 0 27 0;
#X connect 19 0 5 0;
#X connect 19 0 24 0;
#X connect 20 0 19 0;
#X connect 21 0 20 0;
#X connect 22 0 4 0;
#X connect 22 0 23 0;
#X connect 23 0 2 1;
#X connect 24 0 3 1;
#X connect 24 0 4 1;
#X connect 25 0 0 1;
#X connect 26 0 3 0;
#X connect 26 0 25 0;
#X connect 27 0 6 0;
#X connect 28 0 27 0;
#X connect 29 0 21 0;
#X restore 849 -201 pd pitchshift;
#X obj 914 -249 hsl 128 17 0 5 0 0 empty empty grainsize -2 -8 0 10 #9dd5ff #000000 #000000 0 1;
#X obj 884 -296 hsl 128 17 -150 150 0 0 empty empty transposition -2 -8 0 10 #9dd5ff #000000 #000000 0 1;
#N canvas 0 22 450 300 pitchshift 0;
#X obj 517 500 *~;
#X obj 584 546 +~;
#X obj 629 540 *~;
#X obj 460 418 *~;
#X obj 629 467 *~;
#X obj 791 262 expr 1000 / $f1;
#X obj 619 265 expr 1 - $f1;
#X obj 773 297 *~;
#X text 779 144 grain size;
#X text 594 138 transposition;
#X obj 460 449 delread4~ \$0-buffer, f 9;
#X obj 629 494 delread4~ \$0-buffer;
#X obj 402 274 delwrite~ \$0-buffer 500;
#X obj 402 170 inlet~;
#X obj 584 595 outlet~;
#X obj 791 166 inlet;
#X obj 619 165 inlet;
#X text 935 405 Part of ELSE \; https://github.com/porres/pd-else;
#X text 937 381 Alexandre Torres Porres (2018);
#X obj 791 228 max 5;
#X obj 935 243 expr if($f1 == 0 \, 75 \, $f1);
#X obj 935 219 f \$2;
#X obj 773 417 else/pimp~ 0 0.5;
#X obj 773 531 else/envelope~;
#X obj 648 413 else/f2s~ 50;
#X obj 535 440 else/envelope~;
#X obj 535 379 else/pimp~;
#X obj 619 238 else/cents2ratio;
#X obj 643 207 else/initmess \$1;
#X obj 935 194 else/lb;
#X obj 952 337 declare -path else;
#X connect 0 0 1 0;
#X connect 1 0 14 0;
#X connect 2 0 1 1;
#X connect 3 0 10 0;
#X connect 4 0 11 0;
#X connect 5 0 7 1;
#X connect 6 0 7 0;
#X connect 7 0 22 0;
#X connect 7 0 26 0;
#X connect 10 0 0 0;
#X connect 11 0 2 0;
#X connect 13 0 12 0;
#X connect 15 0 19 0;
#X connect 16 0 27 0;
#X connect 19 0 5 0;
#X connect 19 0 24 0;
#X connect 20 0 19 0;
#X connect 21 0 20 0;
#X connect 22 0 4 0;
#X connect 22 0 23 0;
#X connect 23 0 2 1;
#X connect 24 0 3 1;
#X connect 24 0 4 1;
#X connect 25 0 0 1;
#X connect 26 0 3 0;
#X connect 26 0 25 0;
#X connect 27 0 6 0;
#X connect 28 0 27 0;
#X connect 29 0 21 0;
#X restore 749 -408 pd pitchshift;
#X obj 814 -456 hsl 128 17 0 5 0 0 empty empty grainsize -2 -8 0 10 #9dd5ff #000000 #000000 0 1;
#X obj 784 -503 hsl 128 17 -150 150 0 0 empty empty transposition -2 -8 0 10 #9dd5ff #000000 #000000 0 1;
#N canvas 0 22 450 300 pitchshift 0;
#X obj 517 500 *~;
#X obj 584 546 +~;
#X obj 629 540 *~;
#X obj 460 418 *~;
#X obj 629 467 *~;
#X obj 791 262 expr 1000 / $f1;
#X obj 619 265 expr 1 - $f1;
#X obj 773 297 *~;
#X text 779 144 grain size;
#X text 594 138 transposition;
#X obj 460 449 delread4~ \$0-buffer, f 9;
#X obj 629 494 delread4~ \$0-buffer;
#X obj 402 274 delwrite~ \$0-buffer 500;
#X obj 402 170 inlet~;
#X obj 584 595 outlet~;
#X obj 791 166 inlet;
#X obj 619 165 inlet;
#X text 935 405 Part of ELSE \; https://github.com/porres/pd-else;
#X text 937 381 Alexandre Torres Porres (2018);
#X obj 791 228 max 5;
#X obj 935 243 expr if($f1 == 0 \, 75 \, $f1);
#X obj 935 219 f \$2;
#X obj 773 417 else/pimp~ 0 0.5;
#X obj 773 531 else/envelope~;
#X obj 648 413 else/f2s~ 50;
#X obj 535 440 else/envelope~;
#X obj 535 379 else/pimp~;
#X obj 619 238 else/cents2ratio;
#X obj 643 207 else/initmess \$1;
#X obj 935 194 else/lb;
#X obj 952 337 declare -path else;
#X connect 0 0 1 0;
#X connect 1 0 14 0;
#X connect 2 0 1 1;
#X connect 3 0 10 0;
#X connect 4 0 11 0;
#X connect 5 0 7 1;
#X connect 6 0 7 0;
#X connect 7 0 22 0;
#X connect 7 0 26 0;
#X connect 10 0 0 0;
#X connect 11 0 2 0;
#X connect 13 0 12 0;
#X connect 15 0 19 0;
#X connect 16 0 27 0;
#X connect 19 0 5 0;
#X connect 19 0 24 0;
#X connect 20 0 19 0;
#X connect 21 0 20 0;
#X connect 22 0 4 0;
#X connect 22 0 23 0;
#X connect 23 0 2 1;
#X connect 24 0 3 1;
#X connect 24 0 4 1;
#X connect 25 0 0 1;
#X connect 26 0 3 0;
#X connect 26 0 25 0;
#X connect 27 0 6 0;
#X connect 28 0 27 0;
#X connect 29 0 21 0;
#X restore 417 -456 pd pitchshift;
#X obj 479 -503 hsl 128 17 0 5 0 0 empty empty grainsize -2 -8 0 10 #9dd5ff #000000 #000000 0 1;
#X obj 466 -550 hsl 128 17 -150 150 0 0 empty empty transposition -2 -8 0 10 #9dd5ff #000000 #000000 0 1;
#N canvas 0 22 450 300 pitchshift 0;
#X obj 517 500 *~;
#X obj 584 546 +~;
#X obj 629 540 *~;
#X obj 460 418 *~;
#X obj 629 467 *~;
#X obj 791 262 expr 1000 / $f1;
#X obj 619 265 expr 1 - $f1;
#X obj 773 297 *~;
#X text 779 144 grain size;
#X text 594 138 transposition;
#X obj 460 449 delread4~ \$0-buffer, f 9;
#X obj 629 494 delread4~ \$0-buffer;
#X obj 402 274 delwrite~ \$0-buffer 500;
#X obj 402 170 inlet~;
#X obj 584 595 outlet~;
#X obj 791 166 inlet;
#X obj 619 165 inlet;
#X text 935 405 Part of ELSE \; https://github.com/porres/pd-else;
#X text 937 381 Alexandre Torres Porres (2018);
#X obj 791 228 max 5;
#X obj 935 243 expr if($f1 == 0 \, 75 \, $f1);
#X obj 935 219 f \$2;
#X obj 773 417 else/pimp~ 0 0.5;
#X obj 773 531 else/envelope~;
#X obj 648 413 else/f2s~ 50;
#X obj 535 440 else/envelope~;
#X obj 535 379 else/pimp~;
#X obj 619 238 else/cents2ratio;
#X obj 643 207 else/initmess \$1;
#X obj 935 194 else/lb;
#X obj 952 337 declare -path else;
#X connect 0 0 1 0;
#X connect 1 0 14 0;
#X connect 2 0 1 1;
#X connect 3 0 10 0;
#X connect 4 0 11 0;
#X connect 5 0 7 1;
#X connect 6 0 7 0;
#X connect 7 0 22 0;
#X connect 7 0 26 0;
#X connect 10 0 0 0;
#X connect 11 0 2 0;
#X connect 13 0 12 0;
#X connect 15 0 19 0;
#X connect 16 0 27 0;
#X connect 19 0 5 0;
#X connect 19 0 24 0;
#X connect 20 0 19 0;
#X connect 21 0 20 0;
#X connect 22 0 4 0;
#X connect 22 0 23 0;
#X connect 23 0 2 1;
#X connect 24 0 3 1;
#X connect 24 0 4 1;
#X connect 25 0 0 1;
#X connect 26 0 3 0;
#X connect 26 0 25 0;
#X connect 27 0 6 0;
#X connect 28 0 27 0;
#X connect 29 0 21 0;
#X restore 167 -281 pd pitchshift;
#X obj 232 -329 hsl 128 17 0 5 0 0 empty empty grainsize -2 -8 0 10 #9dd5ff #000000 #000000 0 1;
#X obj 202 -376 hsl 128 17 -150 150 0 0 empty empty transposition -2 -8 0 10 #9dd5ff #000000 #000000 0 1;
#N canvas 0 22 450 300 pitchshift 0;
#X obj 517 500 *~;
#X obj 584 546 +~;
#X obj 629 540 *~;
#X obj 460 418 *~;
#X obj 629 467 *~;
#X obj 791 262 expr 1000 / $f1;
#X obj 619 265 expr 1 - $f1;
#X obj 773 297 *~;
#X text 779 144 grain size;
#X text 594 138 transposition;
#X obj 460 449 delread4~ \$0-buffer, f 9;
#X obj 629 494 delread4~ \$0-buffer;
#X obj 402 274 delwrite~ \$0-buffer 500;
#X obj 402 170 inlet~;
#X obj 584 595 outlet~;
#X obj 791 166 inlet;
#X obj 619 165 inlet;
#X text 935 405 Part of ELSE \; https://github.com/porres/pd-else;
#X text 937 381 Alexandre Torres Porres (2018);
#X obj 791 228 max 5;
#X obj 935 243 expr if($f1 == 0 \, 75 \, $f1);
#X obj 935 219 f \$2;
#X obj 773 417 else/pimp~ 0 0.5;
#X obj 773 531 else/envelope~;
#X obj 648 413 else/f2s~ 50;
#X obj 535 440 else/envelope~;
#X obj 535 379 else/pimp~;
#X obj 619 238 else/cents2ratio;
#X obj 643 207 else/initmess \$1;
#X obj 935 194 else/lb;
#X obj 952 337 declare -path else;
#X connect 0 0 1 0;
#X connect 1 0 14 0;
#X connect 2 0 1 1;
#X connect 3 0 10 0;
#X connect 4 0 11 0;
#X connect 5 0 7 1;
#X connect 6 0 7 0;
#X connect 7 0 22 0;
#X connect 7 0 26 0;
#X connect 10 0 0 0;
#X connect 11 0 2 0;
#X connect 13 0 12 0;
#X connect 15 0 19 0;
#X connect 16 0 27 0;
#X connect 19 0 5 0;
#X connect 19 0 24 0;
#X connect 20 0 19 0;
#X connect 21 0 20 0;
#X connect 22 0 4 0;
#X connect 22 0 23 0;
#X connect 23 0 2 1;
#X connect 24 0 3 1;
#X connect 24 0 4 1;
#X connect 25 0 0 1;
#X connect 26 0 3 0;
#X connect 26 0 25 0;
#X connect 27 0 6 0;
#X connect 28 0 27 0;
#X connect 29 0 21 0;
#X restore 142 94 pd pitchshift;
#X obj 207 46 hsl 128 17 0 5 0 0 empty empty grainsize -2 -8 0 10 #9dd5ff #000000 #000000 0 1;
#X obj 177 -1 hsl 128 17 -150 150 0 0 empty empty transposition -2 -8 0 10 #9dd5ff #000000 #000000 0 1;
#X obj 99 -101 throw~ adc;
#X obj 362 199 catch~ adc;
#X obj 687 211 catch~ adc, f 11;
#X obj 868 -8 catch~ adc;
#X obj 793 -249 catch~ adc;
#X obj 699 -483 catch~ adc;
#X obj 370 -530 catch~ adc;
#X obj 387 -184 *~;
#X obj 482 -208 hsl 128 17 0 8 0 0 empty empty low -2 -8 0 10 #dcc6ff #000000 #000000 0 1;
#X obj 641 -67 writesf~;
#X msg 724 -176 start;
#X msg 724 -146 stop;
#X msg 782 -146 open example.wav;
#X obj 99 -177 hip~ 50;
#X obj 99 -151 lop~ 1200;
#X obj 108 -329 catch~ adc;
#X obj 108 36 catch~ adc;
#X connect 0 0 2 0;
#X connect 2 0 1 1;
#X connect 2 0 38 0;
#X connect 3 0 2 1;
#X connect 4 0 42 0;
#X connect 5 0 29 0;
#X connect 6 0 0 2;
#X connect 7 0 0 1;
#X connect 8 0 2 0;
#X connect 9 0 8 2;
#X connect 10 0 8 1;
#X connect 11 0 2 0;
#X connect 12 0 11 2;
#X connect 13 0 11 1;
#X connect 14 0 2 0;
#X connect 15 0 14 2;
#X connect 16 0 14 1;
#X connect 17 0 36 0;
#X connect 18 0 17 2;
#X connect 19 0 17 1;
#X connect 20 0 36 0;
#X connect 21 0 20 2;
#X connect 22 0 20 1;
#X connect 23 0 36 0;
#X connect 24 0 23 2;
#X connect 25 0 23 1;
#X connect 26 0 36 0;
#X connect 27 0 26 2;
#X connect 28 0 26 1;
#X connect 30 0 0 0;
#X connect 31 0 8 0;
#X connect 32 0 11 0;
#X connect 33 0 14 0;
#X connect 34 0 17 0;
#X connect 35 0 20 0;
#X connect 36 0 1 0;
#X connect 36 0 38 0;
#X connect 37 0 36 1;
#X connect 39 0 38 0;
#X connect 40 0 38 0;
#X connect 41 0 38 0;
#X connect 42 0 43 0;
#X connect 43 0 29 0;
#X connect 44 0 23 0;
#X connect 45 0 26 0;
